<mxfile host="65bd71144e">
    <diagram id="xIxL1_86KDeE8Kn_5nyq" name="Page-1">
        <mxGraphModel dx="882" dy="942" grid="1" gridSize="10" guides="1" tooltips="1" connect="1" arrows="1" fold="1" page="1" pageScale="1" pageWidth="850" pageHeight="1100" background="#ffffff" math="0" shadow="0">
            <root>
                <mxCell id="0"/>
                <mxCell id="1" parent="0"/>
                <mxCell id="5" value="" style="edgeStyle=none;html=1;fontFamily=Garamond;fontSize=15;" edge="1" parent="1" source="2" target="3">
                    <mxGeometry relative="1" as="geometry"/>
                </mxCell>
                <mxCell id="6" value="" style="edgeStyle=none;html=1;fontFamily=Garamond;fontSize=15;strokeColor=#000000;" edge="1" parent="1" source="2" target="3">
                    <mxGeometry relative="1" as="geometry"/>
                </mxCell>
                <mxCell id="2" value="input:&lt;br style=&quot;font-size: 15px;&quot;&gt;contours" style="ellipse;whiteSpace=wrap;html=1;fillColor=#e3c800;fontColor=#000000;strokeColor=#B09500;fontFamily=Garamond;fontSize=15;" parent="1" vertex="1">
                    <mxGeometry x="160" y="40" width="120" height="80" as="geometry"/>
                </mxCell>
                <mxCell id="8" value="" style="edgeStyle=none;html=1;strokeColor=#000000;fontFamily=Garamond;fontSize=15;" edge="1" parent="1" source="3" target="7">
                    <mxGeometry relative="1" as="geometry"/>
                </mxCell>
                <mxCell id="3" value="Rozdzielenie konturów zawartych w wektorze contours" style="rounded=0;whiteSpace=wrap;html=1;fillColor=#f5f5f5;fontColor=#333333;strokeColor=#666666;fontFamily=Garamond;fontSize=15;" vertex="1" parent="1">
                    <mxGeometry x="155" y="150" width="130" height="80" as="geometry"/>
                </mxCell>
                <mxCell id="10" value="" style="edgeStyle=none;html=1;strokeColor=#000000;fontFamily=Garamond;fontSize=15;" edge="1" parent="1" source="7" target="9">
                    <mxGeometry relative="1" as="geometry"/>
                </mxCell>
                <mxCell id="7" value="Obliczenie pola powierzchni każdego z konturów" style="rounded=0;whiteSpace=wrap;html=1;fillColor=#f5f5f5;fontColor=#333333;strokeColor=#666666;fontFamily=Garamond;fontSize=15;" vertex="1" parent="1">
                    <mxGeometry x="150" y="260" width="140" height="80" as="geometry"/>
                </mxCell>
                <mxCell id="12" value="" style="edgeStyle=none;html=1;strokeColor=#000000;fontFamily=Garamond;fontSize=15;" edge="1" parent="1" source="9" target="11">
                    <mxGeometry relative="1" as="geometry"/>
                </mxCell>
                <mxCell id="14" style="edgeStyle=none;html=1;entryX=0.5;entryY=0;entryDx=0;entryDy=0;strokeColor=#000000;fontFamily=Garamond;fontSize=15;" edge="1" parent="1" source="9" target="13">
                    <mxGeometry relative="1" as="geometry">
                        <Array as="points">
                            <mxPoint x="220" y="500"/>
                            <mxPoint x="405" y="500"/>
                        </Array>
                    </mxGeometry>
                </mxCell>
                <mxCell id="9" value="Posortowanie konturów w kolejności od największego do najmniejszego pola powierzchni" style="rounded=0;whiteSpace=wrap;html=1;fillColor=#f5f5f5;fontColor=#333333;strokeColor=#666666;fontFamily=Garamond;fontSize=15;" vertex="1" parent="1">
                    <mxGeometry x="150" y="370" width="140" height="100" as="geometry"/>
                </mxCell>
                <mxCell id="17" style="edgeStyle=none;html=1;entryX=0.5;entryY=0;entryDx=0;entryDy=0;strokeColor=#000000;fontFamily=Garamond;fontSize=15;" edge="1" parent="1" source="11" target="16">
                    <mxGeometry relative="1" as="geometry">
                        <Array as="points">
                            <mxPoint x="220" y="640"/>
                            <mxPoint x="305" y="640"/>
                        </Array>
                    </mxGeometry>
                </mxCell>
                <mxCell id="11" value="Wybór głównego kształtu jako konturu z największym polem powierzchni" style="rounded=0;whiteSpace=wrap;html=1;fillColor=#f5f5f5;fontColor=#333333;strokeColor=#666666;fontFamily=Garamond;fontSize=15;" vertex="1" parent="1">
                    <mxGeometry x="150" y="520" width="140" height="90" as="geometry"/>
                </mxCell>
                <mxCell id="18" style="edgeStyle=none;html=1;entryX=0.5;entryY=0;entryDx=0;entryDy=0;strokeColor=#000000;fontFamily=Garamond;fontSize=15;" edge="1" parent="1" source="13" target="16">
                    <mxGeometry relative="1" as="geometry">
                        <Array as="points">
                            <mxPoint x="405" y="640"/>
                            <mxPoint x="305" y="640"/>
                        </Array>
                    </mxGeometry>
                </mxCell>
                <mxCell id="13" value="Wybór otworów kształtu jako kontury z pominięciem tego z największym polem powierzchni" style="rounded=0;whiteSpace=wrap;html=1;fillColor=#f5f5f5;fontColor=#333333;strokeColor=#666666;fontFamily=Garamond;fontSize=15;" vertex="1" parent="1">
                    <mxGeometry x="320" y="520" width="170" height="90" as="geometry"/>
                </mxCell>
                <mxCell id="16" value="return:&lt;br&gt;main_countur, holes" style="ellipse;whiteSpace=wrap;html=1;fillColor=#e3c800;fontColor=#000000;strokeColor=#B09500;fontFamily=Garamond;fontSize=15;" vertex="1" parent="1">
                    <mxGeometry x="230" y="680" width="150" height="80" as="geometry"/>
                </mxCell>
            </root>
        </mxGraphModel>
    </diagram>
</mxfile>